# Blender 4.3.2
# www.blender.org
mtllib spaceship2.mtl
o Lo_poly_Spaceship_04_by_Liz_Reddington
v 1.527424 0.399726 -1.191755
v 1.461936 0.399726 -1.191755
v 1.527424 0.465214 -1.191755
v 1.461936 0.465214 -1.191755
v 1.527424 0.465214 -0.656375
v 1.461937 0.465214 -0.656375
v 1.527424 0.399726 -0.656375
v 1.461937 0.399726 -0.656375
v 1.523162 0.084351 -1.648408
v 1.451736 0.084351 -1.648408
v 1.523162 0.155777 -1.648408
v 1.451736 0.155777 -1.648408
v 1.523162 0.155777 -0.848068
v 1.451736 0.155777 -0.848068
v 1.523162 0.084351 -0.848068
v 1.451736 0.084351 -0.848068
v 1.554160 0.053353 -0.850645
v 1.420738 0.053353 -0.850645
v 1.554160 0.186775 -0.850645
v 1.420738 0.186775 -0.850645
v 1.554161 0.186775 1.112711
v 1.420738 0.186775 1.112711
v 1.554161 0.053353 1.112711
v 1.420738 0.053353 1.112711
v 1.551162 0.375988 -0.657927
v 1.438198 0.375988 -0.657927
v 1.551162 0.488952 -0.657927
v 1.438198 0.488952 -0.657927
v 1.551163 0.488952 1.104786
v 1.438198 0.488952 1.104786
v 1.551163 0.375988 1.104786
v 1.438198 0.375988 1.104786
v -1.432263 0.375988 -0.657927
v -1.545227 0.375988 -0.657927
v -1.432263 0.488952 -0.657927
v -1.545227 0.488952 -0.657927
v -1.432262 0.488952 1.104786
v -1.545227 0.488952 1.104786
v -1.432262 0.375988 1.104786
v -1.545227 0.375988 1.104786
v -1.453032 0.084351 -1.648407
v -1.524458 0.084351 -1.648407
v -1.453032 0.155777 -1.648407
v -1.524458 0.155777 -1.648407
v -1.453032 0.155777 -0.848067
v -1.524458 0.155777 -0.848067
v -1.453032 0.084351 -0.848067
v -1.524458 0.084351 -0.848067
v -1.456001 0.399726 -1.191755
v -1.521489 0.399726 -1.191755
v -1.456001 0.465214 -1.191755
v -1.521489 0.465214 -1.191755
v -1.456001 0.465214 -0.656375
v -1.521488 0.465214 -0.656375
v -1.456001 0.399726 -0.656375
v -1.521488 0.399726 -0.656375
v 0.459352 -0.595368 -0.735092
v -0.459352 -0.595368 -0.735091
v 0.459352 0.828427 -0.735091
v -0.459352 0.828427 -0.735091
v 0.447602 0.871396 1.731942
v -0.447601 0.871396 1.731942
v 0.440553 0.002078 1.582575
v -0.440553 0.002078 1.582575
v 0.653463 0.184083 -0.581022
v -0.653463 0.184083 -0.581022
v 0.258371 -0.368735 -2.025558
v -0.258372 -0.368735 -2.025558
v -0.368925 0.010840 -2.111507
v 0.368925 0.010840 -2.111507
v -0.337325 0.620876 -1.324170
v 0.337325 0.620876 -1.324170
v 1.556586 -0.266363 -0.545346
v 1.685598 -0.266363 -0.545346
v 1.556586 0.795301 -0.545345
v 1.685598 0.795301 -0.545345
v 1.556586 0.795301 1.402912
v 1.685598 0.795301 1.402912
v 1.556586 -0.266363 1.402912
v 1.685598 -0.266363 1.402912
v 1.025064 1.527883 0.130343
v 1.099836 1.527883 0.130343
v 1.099836 1.527883 1.036961
v 1.025065 1.527883 1.036961
v 1.025065 -0.998945 1.036961
v 1.099836 -0.998945 1.036961
v 1.099836 -0.998945 0.130342
v 1.025064 -0.998945 0.130342
v 0.488330 0.317202 0.252637
v 1.566668 0.749601 0.129705
v 0.488330 0.432367 0.252637
v 1.566668 0.802986 0.129705
v 0.488330 0.438889 1.240606
v 1.566668 0.800307 0.500166
v 0.488330 0.323724 1.240606
v 1.566668 0.746922 0.500166
v 0.488330 0.317202 0.252637
v 1.566668 -0.277354 0.129705
v 0.488330 0.432367 0.252637
v 1.566668 -0.223969 0.129705
v 0.488330 0.438889 1.240606
v 1.566668 -0.226648 0.500166
v 0.488330 0.323724 1.240606
v 1.566668 -0.280033 0.500166
v -1.556586 -0.266363 -0.545345
v -1.685598 -0.266363 -0.545345
v -1.556586 0.795301 -0.545345
v -1.685598 0.795301 -0.545345
v -1.556586 0.795301 1.402912
v -1.685598 0.795301 1.402912
v -1.556586 -0.266363 1.402912
v -1.685598 -0.266363 1.402912
v -1.025064 1.527883 0.130343
v -1.099836 1.527883 0.130343
v -1.099836 1.527883 1.036961
v -1.025064 1.527883 1.036961
v -1.025064 -0.998945 1.036961
v -1.099836 -0.998945 1.036961
v -1.099836 -0.998945 0.130343
v -1.025064 -0.998945 0.130343
v -0.488330 0.317202 0.252637
v -1.566668 0.749601 0.129705
v -0.488330 0.432367 0.252637
v -1.566668 0.802986 0.129705
v -0.488330 0.438889 1.240606
v -1.566668 0.800307 0.500166
v -0.488330 0.323724 1.240606
v -1.566668 0.746922 0.500166
v -0.488330 0.317202 0.252637
v -1.566668 -0.277354 0.129705
v -0.488330 0.432367 0.252637
v -1.566668 -0.223969 0.129705
v -0.488330 0.438889 1.240606
v -1.566668 -0.226648 0.500166
v -0.488330 0.323724 1.240606
v -1.566668 -0.280033 0.500166
v 0.269728 0.141618 1.587013
v -0.269728 0.141618 1.587013
v 0.269728 0.681075 1.587013
v -0.269728 0.681075 1.587013
v 0.359589 0.770935 2.111507
v -0.359589 0.770935 2.111507
v 0.359589 0.051757 2.111507
v -0.359589 0.051757 2.111507
v 0.245719 0.657065 2.111507
v -0.245719 0.657065 2.111507
v -0.245719 0.165627 2.111507
v 0.245719 0.165627 2.111507
v 0.167089 0.578435 1.976946
v -0.167089 0.578435 1.976946
v -0.167089 0.244257 1.976946
v 0.167089 0.244257 1.976946
v -1.422034 0.053353 -0.850645
v -1.555456 0.053353 -0.850645
v -1.422034 0.186775 -0.850645
v -1.555456 0.186775 -0.850645
v -1.422033 0.186775 1.112711
v -1.555456 0.186775 1.112711
v -1.422033 0.053353 1.112711
v -1.555456 0.053353 1.112711
v -1.025064 -0.998945 0.138935
v -1.556586 -0.266363 0.340704
v -1.556586 0.795301 0.721628
v -1.031685 1.518758 1.041519
v -1.685598 -0.266363 0.278664
v -1.685598 0.795301 0.659587
v 1.685598 -0.266363 0.502464
v 1.685598 0.795301 0.883385
v 1.556586 -0.266363 0.460709
v 1.556586 0.795301 0.841632
vn -0.0000 -0.0000 -1.0000
vn -0.0000 1.0000 -0.0000
vn -0.0000 -1.0000 -0.0000
vn -1.0000 -0.0000 -0.0000
vn 1.0000 -0.0000 -0.0000
vn -0.0000 -0.0000 1.0000
vn -0.0000 0.7905 -0.6125
vn -0.0000 0.9998 -0.0174
vn -0.0000 -0.9683 0.2496
vn -0.9575 0.2883 -0.0005
vn 0.9575 0.2883 -0.0005
vn -0.0000 -0.1693 0.9856
vn 0.9870 -0.1362 0.0857
vn -0.0000 -0.2208 -0.9753
vn -0.9870 -0.1362 0.0857
vn -0.0000 -0.9849 -0.1730
vn -0.9556 -0.2413 -0.1690
vn 0.9556 -0.2413 -0.1690
vn -0.9377 0.2177 -0.2709
vn -0.0000 0.9432 -0.3323
vn 0.9256 0.3162 -0.2079
vn -0.9256 0.3162 -0.2079
vn 0.9377 0.2177 -0.2709
vn -0.0000 0.6780 -0.7351
vn 0.7810 0.6245 -0.0000
vn -0.0000 0.4469 0.8946
vn -0.8094 -0.5873 -0.0000
vn -0.0000 -0.4469 0.8946
vn 0.7810 -0.6245 -0.0000
vn -0.0000 -0.6780 -0.7351
vn -0.8094 0.5873 -0.0000
vn -0.1133 -0.0000 -0.9936
vn -0.3224 0.9466 -0.0027
vn 0.5661 -0.0000 0.8244
vn 0.3697 -0.9292 0.0026
vn 0.5219 0.8530 -0.0024
vn -0.4849 -0.8745 0.0025
vn -0.7810 0.6245 -0.0000
vn 0.8094 -0.5873 -0.0000
vn -0.7810 -0.6245 -0.0000
vn 0.8094 0.5873 -0.0000
vn 0.1133 -0.0000 -0.9936
vn 0.3224 0.9466 -0.0027
vn -0.5661 -0.0000 0.8244
vn -0.3697 -0.9292 0.0026
vn -0.5219 0.8530 -0.0024
vn 0.4849 -0.8745 0.0025
vn -0.0000 0.9856 -0.1689
vn -0.0000 -0.9856 -0.1689
vn -0.9856 -0.0000 -0.1689
vn 0.9856 -0.0000 -0.1689
vn -0.0000 -0.8634 0.5045
vn 0.8634 -0.0000 0.5045
vn -0.0000 0.8634 0.5045
vn -0.8634 -0.0000 0.5045
vt 0.375000 0.000000
vt 0.625000 0.000000
vt 0.625000 0.250000
vt 0.375000 0.250000
vt 0.625000 0.500000
vt 0.375000 0.500000
vt 0.375000 0.750000
vt 0.625000 0.750000
vt 0.625000 1.000000
vt 0.375000 1.000000
vt 0.875000 0.000000
vt 0.875000 0.250000
vt 0.125000 0.000000
vt 0.125000 0.250000
vt 0.375000 0.125000
vt 0.625000 0.125000
vt 0.875000 0.187500
vt 0.125000 0.187500
vt 0.375000 0.625000
vt 0.625000 0.625000
vt 0.759455 0.000000
vt 0.808335 0.250000
vt 0.245903 0.000000
vt 0.197023 0.250000
vt 0.625000 0.433334
vt 0.375000 0.427977
vt 0.625000 0.865545
vt 0.375000 0.870903
vt 0.375000 0.997631
vt 0.730737 0.000000
vt 0.779617 0.250000
vt 0.261302 0.000000
vt 0.212422 0.250000
vt 0.625000 0.404617
vt 0.375000 0.412578
vt 0.625000 0.894263
vt 0.375000 0.886302
s 1
usemtl lambert4SG.001
f 1/1/1 2/2/1 4/3/1 3/4/1
f 3/4/2 4/3/2 6/5/2 5/6/2
f 7/7/3 8/8/3 2/9/3 1/10/3
f 2/2/4 8/11/4 6/12/4 4/3/4
f 7/13/5 1/1/5 3/4/5 5/14/5
f 9/1/1 10/2/1 12/3/1 11/4/1
f 11/4/2 12/3/2 14/5/2 13/6/2
f 15/7/3 16/8/3 10/9/3 9/10/3
f 10/2/4 16/11/4 14/12/4 12/3/4
f 15/13/5 9/1/5 11/4/5 13/14/5
f 17/1/1 18/2/1 20/3/1 19/4/1
f 19/4/2 20/3/2 22/5/2 21/6/2
f 21/6/6 22/5/6 24/8/6 23/7/6
f 23/7/3 24/8/3 18/9/3 17/10/3
f 18/2/4 24/11/4 22/12/4 20/3/4
f 23/13/5 17/1/5 19/4/5 21/14/5
f 25/1/1 26/2/1 28/3/1 27/4/1
f 27/4/2 28/3/2 30/5/2 29/6/2
f 29/6/6 30/5/6 32/8/6 31/7/6
f 31/7/3 32/8/3 26/9/3 25/10/3
f 26/2/4 32/11/4 30/12/4 28/3/4
f 31/13/5 25/1/5 27/4/5 29/14/5
f 33/1/1 34/2/1 36/3/1 35/4/1
f 35/4/2 36/3/2 38/5/2 37/6/2
f 37/6/6 38/5/6 40/8/6 39/7/6
f 39/7/3 40/8/3 34/9/3 33/10/3
f 34/2/4 40/11/4 38/12/4 36/3/4
f 39/13/5 33/1/5 35/4/5 37/14/5
f 41/1/1 42/2/1 44/3/1 43/4/1
f 43/4/2 44/3/2 46/5/2 45/6/2
f 47/7/3 48/8/3 42/9/3 41/10/3
f 42/2/4 48/11/4 46/12/4 44/3/4
f 47/13/5 41/1/5 43/4/5 45/14/5
f 49/1/1 50/2/1 52/3/1 51/4/1
f 51/4/2 52/3/2 54/5/2 53/6/2
f 55/7/3 56/8/3 50/9/3 49/10/3
f 50/2/4 56/11/4 54/12/4 52/3/4
f 55/13/5 49/1/5 51/4/5 53/14/5
f 70/15/7 69/16/7 71/3/7 72/4/7
f 66/16/19 60/3/19 71/3/19
f 60/3/20 59/4/20 72/4/20 71/3/20
f 72/4/21 65/15/21 70/15/21
f 66/16/22 71/3/22 69/16/22
f 59/4/23 65/15/23 72/4/23
f 149/6/6 150/5/6 151/8/6 152/7/6
f 153/1/1 154/2/1 156/3/1 155/4/1
f 155/4/2 156/3/2 158/5/2 157/6/2
f 157/6/6 158/5/6 160/8/6 159/7/6
f 159/7/3 160/8/3 154/9/3 153/10/3
f 154/2/4 160/11/4 158/12/4 156/3/4
f 159/13/5 153/1/5 155/4/5 157/14/5
usemtl lambert3SG.001
f 59/4/8 60/3/8 62/5/8 61/6/8
f 66/16/10 62/17/10 60/3/10
f 61/18/11 65/15/11 59/4/11
f 77/6/6 79/7/6 80/8/6 78/5/6
f 85/7/3 88/10/3 87/9/3 86/8/3
f 167/21/5 168/22/5 78/12/5 80/11/5
f 168/25/25 83/5/25 78/5/25
f 78/5/26 83/5/26 84/6/26 77/6/26
f 79/7/28 85/7/28 86/8/28 80/8/28
f 80/8/29 86/8/29 87/9/29 167/27/29
f 109/6/6 110/5/6 112/8/6 111/7/6
f 117/7/3 118/8/3 119/9/3 161/29/3
f 111/13/5 162/32/5 163/33/5 109/14/5
f 110/5/26 109/6/26 164/6/26 115/5/26
f 109/6/39 163/35/39 164/6/39
f 111/7/28 112/8/28 118/8/28 117/7/28
f 161/29/41 162/37/41 111/7/41 117/7/41
f 112/8/40 165/36/40 119/9/40 118/8/40
f 166/31/4 165/30/4 112/11/4 110/12/4
f 115/5/38 166/34/38 110/5/38
f 169/28/31 88/10/31 85/7/31 79/7/31
f 79/13/4 77/14/4 170/24/4 169/23/4
f 77/6/27 84/6/27 170/26/27
usemtl lambert2SG.001
f 63/7/9 64/8/9 58/9/9 57/10/9
f 61/19/12 62/20/12 64/8/12 63/7/12
f 63/13/13 57/1/13 65/15/13 61/18/13
f 67/1/14 68/2/14 69/16/14 70/15/14
f 58/2/15 64/11/15 62/17/15 66/16/15
f 57/1/16 58/2/16 68/2/16 67/1/16
f 58/2/17 66/16/17 69/16/17 68/2/17
f 65/15/18 57/1/18 67/1/18 70/15/18
f 73/1/1 75/4/1 76/3/1 74/2/1
f 81/4/2 84/6/2 83/5/2 82/3/2
f 169/23/4 170/24/4 75/4/4 73/1/4
f 75/4/24 81/4/24 82/3/24 76/3/24
f 170/26/27 84/6/27 81/4/27 75/4/27
f 74/9/30 87/9/30 88/10/30 73/10/30
f 73/10/31 88/10/31 169/28/31
f 89/1/32 91/4/32 92/3/32 90/2/32
f 91/4/33 93/6/33 94/5/33 92/3/33
f 93/6/34 95/7/34 96/8/34 94/5/34
f 95/7/35 89/10/35 90/9/35 96/8/35
f 97/1/32 99/4/32 100/3/32 98/2/32
f 99/4/36 101/6/36 102/5/36 100/3/36
f 101/6/34 103/7/34 104/8/34 102/5/34
f 103/7/37 97/10/37 98/9/37 104/8/37
f 105/1/1 106/2/1 108/3/1 107/4/1
f 113/4/2 114/3/2 115/5/2 116/6/2
f 106/2/4 165/30/4 166/31/4 108/3/4
f 107/4/24 108/3/24 114/3/24 113/4/24
f 108/3/38 166/34/38 115/5/38 114/3/38
f 119/9/40 165/36/40 106/9/40
f 106/9/30 105/10/30 120/10/30 119/9/30
f 121/1/42 122/2/42 124/3/42 123/4/42
f 123/4/43 124/3/43 126/5/43 125/6/43
f 125/6/44 126/5/44 128/8/44 127/7/44
f 127/7/45 128/8/45 122/9/45 121/10/45
f 129/1/42 130/2/42 132/3/42 131/4/42
f 131/4/46 132/3/46 134/5/46 133/6/46
f 133/6/44 134/5/44 136/8/44 135/7/44
f 135/7/47 136/8/47 130/9/47 129/10/47
f 137/1/1 138/2/1 140/3/1 139/4/1
f 139/4/48 140/3/48 142/5/48 141/6/48
f 143/7/49 144/8/49 138/9/49 137/10/49
f 138/2/50 144/11/50 142/12/50 140/3/50
f 143/13/51 137/1/51 139/4/51 141/14/51
f 141/6/6 142/5/6 146/5/6 145/6/6
f 142/5/6 144/8/6 147/8/6 146/5/6
f 144/8/6 143/7/6 148/7/6 147/8/6
f 143/7/6 141/6/6 145/6/6 148/7/6
f 145/6/52 146/5/52 150/5/52 149/6/52
f 146/5/53 147/8/53 151/8/53 150/5/53
f 147/8/54 148/7/54 152/7/54 151/8/54
f 148/7/55 145/6/55 149/6/55 152/7/55
f 161/29/3 119/9/3 120/10/3
f 105/10/41 162/37/41 161/29/41 120/10/41
f 163/33/5 162/32/5 105/1/5 107/4/5
f 164/6/39 163/35/39 107/4/39 113/4/39 116/6/39
f 115/5/26 164/6/26 116/6/26
f 167/27/29 87/9/29 74/9/29
f 74/2/5 76/3/5 168/22/5 167/21/5
f 76/3/25 82/3/25 83/5/25 168/25/25
